<svg width="54" height="20" viewBox="0 0 54 20" fill="none" xmlns="http://www.w3.org/2000/svg">
<path fill-rule="evenodd" clip-rule="evenodd" d="M6.81149 1.40725C3.35125 5.47086 0.0335383 10.5101 0.000270099 14.2768C-0.012687 15.694 0.43976 16.9312 1.525 17.8683C3.08685 19.218 4.80769 19.6939 6.52013 19.6967C9.02259 19.7002 11.5076 18.6906 13.4532 17.9121C16.7299 16.6017 52.9513 0.872154 52.9513 0.872154C53.3008 0.697059 53.2353 0.478891 52.7979 0.5878C52.6214 0.631924 13.3653 11.2704 13.3653 11.2704C12.6217 11.4807 11.8534 11.5907 11.0807 11.5975C8.06377 11.6153 5.37921 9.9407 5.40092 6.41183C5.40932 5.03102 5.832 3.36587 6.81149 1.40725Z" fill="black"/>
</svg>
